<svg width="40" height="40" viewBox="0 0 40 40" fill="none" xmlns="http://www.w3.org/2000/svg">
<path d="M20.0012 1C9.52476 1 1 9.52239 1 20C1 30.4776 9.52476 39 20.0012 39C30.4776 39 39.0024 30.4776 39.0024 20C39.0024 9.52239 30.4776 1 20.0012 1ZM20.0012 37.7344C10.2227 37.7344 2.26793 29.7785 2.26793 20C2.26793 10.2215 10.2227 2.26556 20.0012 2.26556C29.7796 2.26556 37.7344 10.2215 37.7344 20C37.7344 29.7785 29.7796 37.7344 20.0012 37.7344Z" fill="#02CDCF" stroke="#02CDCF"/>
<path d="M30.4221 14.1306C30.5535 13.8873 30.6618 13.6322 30.7456 13.3686C30.7844 13.2464 30.7852 13.1153 30.7478 12.9926C30.7105 12.8699 30.6369 12.7614 30.5366 12.6814C30.4364 12.6014 30.3142 12.5537 30.1863 12.5446C30.0584 12.5355 29.9307 12.5654 29.8201 12.6304C29.2129 12.9911 28.5556 13.2599 27.8696 13.4279C27.0369 12.6763 25.9554 12.2597 24.8337 12.2583C24.2243 12.2588 23.6213 12.3823 23.0607 12.6215C22.5002 12.8606 21.9937 13.2105 21.5717 13.6501C21.1497 14.0898 20.8208 14.6101 20.6047 15.1799C20.3886 15.7497 20.2898 16.3573 20.3142 16.9662C17.6492 16.6307 15.2156 15.2822 13.5183 13.2004C13.4533 13.1215 13.3702 13.0595 13.2761 13.0196C13.1819 12.9797 13.0796 12.9632 12.9777 12.9713C12.8758 12.9794 12.7774 13.0121 12.6908 13.0664C12.6042 13.1207 12.532 13.1951 12.4803 13.2833C12.0916 13.9504 11.8804 14.7059 11.8667 15.4778C11.853 16.2497 12.0373 17.0122 12.4021 17.6926C12.3126 17.7077 12.2267 17.739 12.1485 17.7851C12.0527 17.8462 11.9738 17.9304 11.9191 18.03C11.8644 18.1296 11.8357 18.2414 11.8357 18.355C11.8357 19.7 12.4341 20.9347 13.3986 21.7737L13.3572 21.8152C13.2843 21.8976 13.2343 21.9975 13.2118 22.1051C13.1894 22.2128 13.1954 22.3244 13.2292 22.429C13.4303 23.0565 13.7662 23.6324 14.2132 24.1165C14.6602 24.6006 15.2077 24.9811 15.8172 25.2315C14.5654 25.8422 13.1644 26.0803 11.7811 25.9176C11.639 25.9031 11.496 25.9362 11.3746 26.0117C11.2532 26.0871 11.1603 26.2008 11.1104 26.3347C11.0625 26.4696 11.0616 26.6168 11.1079 26.7523C11.1541 26.8878 11.2448 27.0037 11.3652 27.0812C13.2458 28.2882 15.4336 28.9294 17.6681 28.9286C24.9913 28.9286 29.3687 22.98 29.3687 17.2293L29.3675 17.035C30.0772 16.4809 30.6937 15.8168 31.1935 15.0679C31.2692 14.9547 31.3064 14.8201 31.2997 14.6841C31.2929 14.5481 31.2425 14.4178 31.156 14.3127C31.0695 14.2075 30.9514 14.133 30.8192 14.1002C30.687 14.0674 30.5478 14.0781 30.4221 14.1306ZM28.3543 16.2102C28.2683 16.272 28.1992 16.3544 28.1532 16.4499C28.1073 16.5453 28.086 16.6507 28.0912 16.7565C28.0983 16.9129 28.1019 17.0717 28.1019 17.2281C28.1019 22.3567 24.1998 27.6619 17.6693 27.6619C16.5046 27.6624 15.3481 27.4669 14.2483 27.0836C15.5655 26.8312 16.8029 26.2663 17.8565 25.4365C17.9591 25.3556 18.0342 25.245 18.0715 25.1199C18.1089 24.9947 18.1066 24.8611 18.0651 24.7372C18.0236 24.6134 17.9449 24.5054 17.8397 24.428C17.7345 24.3506 17.6079 24.3076 17.4774 24.3048C16.9664 24.2951 16.4649 24.1654 16.0133 23.9262C15.5617 23.687 15.1727 23.345 14.8775 22.9279C15.1773 22.9077 15.4712 22.858 15.7568 22.7809C15.895 22.7439 16.0166 22.6612 16.1017 22.5462C16.1869 22.4312 16.2305 22.2908 16.2256 22.1478C16.2206 22.0048 16.1673 21.8677 16.0745 21.7589C15.9816 21.65 15.8545 21.5759 15.7141 21.5486C15.137 21.4312 14.6028 21.1591 14.1684 20.7615C13.734 20.3639 13.4159 19.8556 13.2482 19.2912C13.5634 19.3706 13.8869 19.4168 14.2104 19.4274C14.4888 19.4263 14.7472 19.2556 14.8337 18.9878C14.9202 18.72 14.8183 18.4249 14.5824 18.2685C14.0249 17.897 13.5956 17.3625 13.3532 16.7379C13.1107 16.1133 13.067 15.4291 13.228 14.7788C15.2864 16.8908 18.0658 18.1484 21.011 18.3005C21.2195 18.3017 21.402 18.2271 21.5288 18.0742C21.6556 17.9213 21.7042 17.7187 21.6592 17.5244C21.4971 16.8264 21.5696 16.0945 21.8654 15.4419C22.1612 14.7893 22.6639 14.2524 23.2956 13.9142C23.9274 13.5761 24.6529 13.4556 25.36 13.5714C26.0671 13.6872 26.7164 14.0328 27.2072 14.5548C27.2808 14.6333 27.3731 14.6918 27.4756 14.7247C27.578 14.7577 27.6871 14.7641 27.7926 14.7432C27.9881 14.7041 28.1813 14.6591 28.3721 14.6069C28.2861 14.6713 28.1967 14.731 28.1043 14.7859C27.9814 14.8611 27.8878 14.976 27.839 15.1116C27.7901 15.2472 27.7889 15.3953 27.8356 15.5317C27.8822 15.668 27.9739 15.7844 28.0956 15.8617C28.2172 15.9389 28.3616 15.9724 28.5048 15.9566L28.7205 15.9294C28.6017 16.0272 28.4796 16.1209 28.3543 16.2102Z" fill="#02CDCF"/>
</svg>
